<svg width="25" height="24" viewBox="0 0 25 24" fill="none" xmlns="http://www.w3.org/2000/svg">
<path d="M12.4996 17C16.1616 17 19.3646 18.575 21.1066 20.925L19.2646 21.796C17.8466 20.116 15.3466 19 12.4996 19C9.65255 19 7.15255 20.116 5.73455 21.796L3.89355 20.924C5.63555 18.574 8.83755 17 12.4996 17ZM12.4996 2C13.8256 2 15.0974 2.52678 16.0351 3.46447C16.9728 4.40215 17.4996 5.67392 17.4996 7V10C17.4996 11.3261 16.9728 12.5979 16.0351 13.5355C15.0974 14.4732 13.8256 15 12.4996 15C11.1735 15 9.9017 14.4732 8.96402 13.5355C8.02634 12.5979 7.49955 11.3261 7.49955 10V7C7.49955 5.67392 8.02634 4.40215 8.96402 3.46447C9.9017 2.52678 11.1735 2 12.4996 2Z" fill="#07351A"/>
</svg>
